<?xml version="1.0" encoding="UTF-8" standalone="no"?>
<svg 
    role="img" 
    xmlns="http://www.w3.org/2000/svg" 
    width="1000mm"
    height="1000mm"
    viewBox="0 0 1000 1000"
    style="max-width:1.6em; height: auto;">
    
    <path 
        id="path" 
        style="opacity:1;vector-effect:none;fill:#000000;fill-opacity:1;"
        d="M 75 0C 75 0 75 0 75 0C 33 0 0 33 0 75C 0 75 0 925 0 925C 0 967 33 1000 75 1000C 75 1000 925 1000 925 1000C 967 1000 1000 967 1000 925C 1000 925 1000 75 1000 75C 1000 33 967 0 925 0C 925 0 75 0 75 0 M 521 95C 523 95 524 95 525 95C 572 95 599 135 614 178C 630 174 639 171 640 171C 642 170 647 169 651 170C 651 170 614 919 614 919C 614 919 130 828 130 828C 130 828 192 347 194 331C 197 308 198 307 222 300C 226 299 256 289 299 276C 315 207 367 69 477 69C 491 69 508 77 521 95C 521 95 521 95 521 95M 332 266C 332 266 399 245 399 245C 415 162 453 120 488 104C 483 101 479 99 474 99C 474 99 474 99 474 99C 395 99 351 202 332 266C 332 266 332 266 332 266M 546 191C 546 194 546 197 546 199C 546 199 587 187 587 187C 577 155 561 127 537 124C 543 142 546 163 546 191C 546 191 546 191 546 191M 433 235C 462 226 491 217 518 208C 518 207 518 205 518 204C 518 171 513 147 507 130C 480 141 449 172 433 235C 433 235 433 235 433 235M 708 223C 708 223 774 228 777 228C 780 228 784 231 784 235C 784 235 784 235 784 235C 785 239 877 862 877 862C 877 862 629 916 629 916C 629 916 666 181 666 181C 680 195 708 223 708 223C 708 223 708 223 708 223M 287 517C 287 611 381 613 381 671C 381 685 371 704 347 704C 310 704 267 666 267 666C 267 666 244 740 244 740C 244 740 287 792 370 792C 439 792 491 739 491 658C 491 555 376 538 376 494C 376 486 379 454 430 454C 464 454 493 469 493 469C 493 469 525 373 525 373C 525 373 503 360 459 360C 344 360 287 437 287 517C 287 517 287 517 287 517"
        transform="">
    </path>    
</svg>